<svg xmlns="http://www.w3.org/2000/svg" xmlns:xlink="http://www.w3.org/1999/xlink" version="1.1" width="100%" 
viewBox="0 0 70 484" ><g>
<path d="
M 0 100
A 100 10 90 0 1 10 0
L 10 100
A 10 5 90 0 0 20 100
A 100 5 90 0 1 30 100
A 10 5 90 0 0 40 100
A 100 5 90 0 1 50 100
A 10 5 90 0 0 60 100
L 60 0
A 100 20 90 0 1 70 100

A 35 75 0 0 1 55 152

A 50 20 90 0 0 45 200

A 400 20 90 0 0 60 440
A 25 40 0 0 1 10 440
A 400 20 90 0 0 25 200
A 50 20 90 0 0 15 152
A 35 75 0 0 1 0 100
" 
fill="#cbb26a" stroke="#be9e44" stroke-width="2"/>
</g>
<g transform="rotate(-90) translate(-450,-54)">
<text x="50%" y="90" font-family="Ubuntu" font-size="15" dominant-baseline="middle" text-anchor="middle" fill="#1172B8">CoodFort</text> 
</g></svg>