<svg xmlns="http://www.w3.org/2000/svg" xmlns:xlink="http://www.w3.org/1999/xlink" version="1.1" width="100%" 
viewBox="0 0 830 830" >
<defs>
<style>
@import url('https://fonts.googleapis.com/css2?family=Ubuntu');
</style>
</defs>
<rect x="0" y="0" width="830" height="830" fill="#1172B8" rx="80"/>
<g>
<circle cx="415" cy="415" r="250" stroke="#cbb26a" fill="none"  stroke-width="20"/>
<circle cx="415" cy="415" r="350" stroke="#cbb26a" fill="none" stroke-width="50"/>
</g>
<!--g transform="scale(0.9) rotate(90) translate(270 -830)">
<path d="
M 100 300 L 120 800 
C 120 800, 90 845, 60 800 
L 80 300
C 80 300, 0 300, 0 200
Q 20 -150, 40 120
Q 40 300, 50 150
Q 70 -120, 80 120
Q 90 300, 100 150
Q 110 -120, 130 120
Q 140 300, 140 150
Q 160 -170, 180 200
C 180 200, 180 300, 100 300
" 
fill="#cbb26a" stroke="#be9e44" stroke-width="2"/>
</g>
<g transform="scale(0.9) 
    rotate(90) 
    translate(500 -830)">
<path d="
M 60 0 L 90 800 
C 90 800, 60 845, 30 800 
L 40 520 L 0 520
C 0 520, 0 0, 60 0 
" 
fill="#cbb26a" stroke="#be9e44" stroke-width="2"/>
</g>
<text x="50%" y="90" font-family="Ubuntu" dominant-baseline="middle" text-anchor="middle" fill="#cbb26a">CoodFort</text--> 
</svg>