<svg xmlns="http://www.w3.org/2000/svg" xmlns:xlink="http://www.w3.org/1999/xlink" version="1.1" width="725px" height="355px" viewBox="-0.5 -0.5 725 355" ><g><rect x="642" y="160" width="40" height="190" rx="6" ry="6" fill="rgb(255, 255, 255)" stroke="rgb(0, 0, 0)" stroke-width="5" pointer-events="all"/><ellipse cx="662" cy="105" rx="60" ry="85" fill="rgb(255, 255, 255)" stroke="rgb(0, 0, 0)" stroke-width="5" pointer-events="all"/><rect x="2" y="20" width="20" height="150" rx="3" ry="3" fill="rgb(255, 255, 255)" stroke="rgb(0, 0, 0)" pointer-events="all"/><rect x="32" y="20" width="20" height="150" rx="3" ry="3" fill="rgb(255, 255, 255)" stroke="rgb(0, 0, 0)" pointer-events="all"/><rect x="62" y="20" width="20" height="150" rx="3" ry="3" fill="rgb(255, 255, 255)" stroke="rgb(0, 0, 0)" pointer-events="all"/><rect x="22" y="160" width="40" height="190" rx="6" ry="6" fill="rgb(255, 255, 255)" stroke="rgb(0, 0, 0)" pointer-events="all"/><rect x="542" y="162.5" width="40" height="190" rx="6" ry="6" fill="rgb(255, 255, 255)" stroke="rgb(0, 0, 0)" stroke-width="5" pointer-events="all"/><path d="M 462 82.5 L 642 82.5 Q 602 122.5 642 162.5 L 462 162.5 Q 422 122.5 462 82.5 Z" fill="rgb(255, 255, 255)" stroke="rgb(0, 0, 0)" stroke-miterlimit="10" transform="rotate(90,542,122.5)" pointer-events="all"/><rect x="2" y="20" width="20" height="150" rx="3" ry="3" fill="rgb(255, 255, 255)" stroke="rgb(0, 0, 0)" stroke-width="5" pointer-events="all"/><rect x="32" y="20" width="20" height="150" rx="3" ry="3" fill="rgb(255, 255, 255)" stroke="rgb(0, 0, 0)" stroke-width="5" pointer-events="all"/><rect x="62" y="20" width="20" height="150" rx="3" ry="3" fill="rgb(255, 255, 255)" stroke="rgb(0, 0, 0)" stroke-width="5" pointer-events="all"/><ellipse cx="287" cy="177.5" rx="175" ry="175" fill="rgb(255, 255, 255)" stroke="rgb(0, 0, 0)" stroke-width="5" pointer-events="all"/><rect x="22" y="160" width="40" height="190" rx="6" ry="6" fill="rgb(255, 255, 255)" stroke="rgb(0, 0, 0)" stroke-width="5" pointer-events="all"/><ellipse cx="287" cy="177.5" rx="102.5" ry="102.5" fill="rgb(255, 255, 255)" stroke="rgb(0, 0, 0)" stroke-width="5" pointer-events="all"/><path d="M 462 82.5 L 642 82.5 Q 602 122.5 642 162.5 L 462 162.5 Q 422 122.5 462 82.5 Z" fill="rgb(255, 255, 255)" stroke="rgb(0, 0, 0)" stroke-width="5" stroke-miterlimit="10" transform="rotate(90,542,122.5)" pointer-events="all"/></g></svg>